<?xml version="1.0" encoding="UTF-8"?> <!-- Generator: Adobe Illustrator 26.3.1, SVG Export Plug-In . SVG Version: 6.00 Build 0) --> <svg xmlns="http://www.w3.org/2000/svg" xmlns:xlink="http://www.w3.org/1999/xlink" version="1.1" id="Layer_1" x="0px" y="0px" viewBox="0 0 64 64" style="enable-background:new 0 0 64 64;" xml:space="preserve"> <style type="text/css"> .st0{fill:#D6F622;} .st1{fill:#020A47;} .st2{fill:#9394FF;} .st3{fill:#5EE4E4;} .st4{fill:#D30971;} .st5{fill-rule:evenodd;clip-rule:evenodd;fill:#5EE4E4;} .st6{fill-rule:evenodd;clip-rule:evenodd;fill:#020A47;} .st7{fill:none;stroke:#020A47;stroke-width:2.4;stroke-miterlimit:10;} .st8{fill:#FFFF00;} </style> <g> <g> <path class="st1" d="M43.44043,43.44039H20.55957V20.55953h22.88086V43.44039z M22.95996,41.04h18.08008V22.95992H22.95996V41.04z "></path> </g> <g> <g> <path class="st1" d="M11.15576,38.1357c-2.05713,0-3.73096-1.67383-3.73096-3.73047s1.67383-3.73047,3.73096-3.73047 c2.05664,0,3.73047,1.67383,3.73047,3.73047S13.2124,38.1357,11.15576,38.1357z M11.15576,33.07515 c-0.73389,0-1.33057,0.59668-1.33057,1.33008s0.59668,1.33008,1.33057,1.33008c0.7334,0,1.33008-0.59668,1.33008-1.33008 S11.88916,33.07515,11.15576,33.07515z"></path> </g> <g> <rect x="13.68604" y="33.20504" class="st1" width="8.07373" height="2.40039"></rect> </g> </g> <g> <g> <path class="st1" d="M15.52686,24.97359c-2.05664,0-3.73047-1.67383-3.73047-3.73047s1.67383-3.73047,3.73047-3.73047 c2.05713,0,3.73096,1.67383,3.73096,3.73047S17.58398,24.97359,15.52686,24.97359z M15.52686,19.91304 c-0.7334,0-1.33008,0.59668-1.33008,1.33008s0.59668,1.33008,1.33008,1.33008c0.73389,0,1.33057-0.59668,1.33057-1.33008 S16.26074,19.91304,15.52686,19.91304z"></path> </g> <g> <path class="st1" d="M21.56396,29.75191h-6.03711c-0.6626,0-1.2002-0.53711-1.2002-1.2002V23.7734h2.40039v3.57812h4.83691 V29.75191z"></path> </g> </g> <g> <g> <path class="st1" d="M42.49268,19.2773c-2.05713,0-3.73096-1.67383-3.73096-3.73047c0-2.05762,1.67383-3.73145,3.73096-3.73145 s3.73096,1.67383,3.73096,3.73145C46.22363,17.60347,44.5498,19.2773,42.49268,19.2773z M42.49268,14.21578 c-0.73389,0-1.33057,0.59668-1.33057,1.33105c0,0.7334,0.59668,1.33008,1.33057,1.33008s1.33057-0.59668,1.33057-1.33008 C43.82324,14.81246,43.22656,14.21578,42.49268,14.21578z"></path> </g> <g> <path class="st1" d="M36.38477,21.58297h-2.40039v-6.03613c0-0.66309,0.5376-1.2002,1.2002-1.2002h4.77734v2.40039h-3.57715 V21.58297z"></path> </g> </g> <g> <g> <path class="st1" d="M48.53027,45.47554c-2.05713,0-3.73096-1.67383-3.73096-3.73047c0-2.05762,1.67383-3.73145,3.73096-3.73145 c2.05664,0,3.73047,1.67383,3.73047,3.73145C52.26074,43.80172,50.58691,45.47554,48.53027,45.47554z M48.53027,40.41402 c-0.73389,0-1.33057,0.59668-1.33057,1.33105c0,0.7334,0.59668,1.33008,1.33057,1.33008 c0.7334,0,1.33008-0.59668,1.33008-1.33008C49.86035,41.0107,49.26367,40.41402,48.53027,40.41402z"></path> </g> <g> <path class="st1" d="M49.73047,39.21383h-2.40039v-3.57715h-4.83691v-2.40039h6.03711c0.6626,0,1.2002,0.53711,1.2002,1.2002 V39.21383z"></path> </g> </g> <g> <g> <path class="st1" d="M22.10107,52.18453c-2.05713,0-3.73096-1.67383-3.73096-3.73145c0-2.05664,1.67383-3.73047,3.73096-3.73047 c2.05664,0,3.73047,1.67383,3.73047,3.73047C25.83154,50.5107,24.15771,52.18453,22.10107,52.18453z M22.10107,47.123 c-0.73389,0-1.33057,0.59668-1.33057,1.33008c0,0.73438,0.59668,1.33105,1.33057,1.33105 c0.7334,0,1.33008-0.59668,1.33008-1.33105C23.43115,47.71968,22.83447,47.123,22.10107,47.123z"></path> </g> <g> <path class="st1" d="M29.40918,49.65328h-4.77783v-2.40039h3.57764v-4.83594h2.40039v6.03613 C30.60938,49.11617,30.07178,49.65328,29.40918,49.65328z"></path> </g> </g> <g> <g> <path class="st1" d="M29.40918,14.70992c-2.05664,0-3.73047-1.67383-3.73047-3.73047c0-2.05762,1.67383-3.73144,3.73047-3.73144 c2.05713,0,3.73096,1.67383,3.73096,3.73144C33.14014,13.03609,31.46631,14.70992,29.40918,14.70992z M29.40918,9.6484 c-0.7334,0-1.33008,0.59668-1.33008,1.33105c0,0.7334,0.59668,1.33008,1.33008,1.33008 c0.73389,0,1.33057-0.59668,1.33057-1.33008C30.73975,10.24508,30.14307,9.6484,29.40918,9.6484z"></path> </g> <g> <rect x="28.20898" y="13.50972" class="st1" width="2.40039" height="8.07324"></rect> </g> </g> <g> <g> <path class="st1" d="M35.18457,56.75191c-2.05713,0-3.73096-1.67383-3.73096-3.73145c0-2.05664,1.67383-3.73047,3.73096-3.73047 c2.05664,0,3.73047,1.67383,3.73047,3.73047C38.91504,55.07808,37.24121,56.75191,35.18457,56.75191z M35.18457,51.69039 c-0.73389,0-1.33057,0.59668-1.33057,1.33008c0,0.73438,0.59668,1.33105,1.33057,1.33105 c0.7334,0,1.33008-0.59668,1.33008-1.33105C36.51465,52.28707,35.91797,51.69039,35.18457,51.69039z"></path> </g> <g> <rect x="33.98438" y="42.41695" class="st1" width="2.40039" height="8.07324"></rect> </g> </g> <g> <g> <path class="st1" d="M52.84424,32.28218c-2.05664,0-3.73047-1.67383-3.73047-3.73047c0-2.05762,1.67383-3.73145,3.73047-3.73145 c2.05713,0,3.73096,1.67383,3.73096,3.73145C56.5752,30.60836,54.90137,32.28218,52.84424,32.28218z M52.84424,27.22066 c-0.7334,0-1.33008,0.59668-1.33008,1.33105c0,0.7334,0.59668,1.33008,1.33008,1.33008 c0.73389,0,1.33057-0.59668,1.33057-1.33008C54.1748,27.81734,53.57812,27.22066,52.84424,27.22066z"></path> </g> <g> <rect x="42.24023" y="27.35152" class="st1" width="8.07373" height="2.40039"></rect> </g> </g> <g> <path class="st2" d="M38.71143,38.7109H25.28857V25.28902h13.42285V38.7109z M29.48877,34.51168h5.02246v-5.02344h-5.02246 V34.51168z"></path> </g> </g> </svg> 